<svg xmlns="http://www.w3.org/2000/svg" width="805" height="600"><rect width="805" height="600" x="0" y="0" fill="#FFFFFF" id="backgorund"/><g id="viz" transform="translate(402.5,300)"><g id="cells"><path d="M-167.4315780649916,-67.9080438783629L26.79168019965166,-135.42421262220373L38.99240244041133,-170.82105928801158L-167.43157806499167,-289.99999999999994z" fill="#1f77b4" stroke="#FFFFFF" stroke-width="2" id="Bronx"/><path d="M26.79168019965166,-135.42421262220373L-167.4315780649916,-67.9080438783629L-167.4315780649916,17.548979224587768L53.21197401788966,40.659896755318606L73.8977718635488,-63.154928180713206z" fill="#ff7f0e" stroke="#FFFFFF" stroke-width="2" id="Brooklyn"/><path d="M334.86315612998294,-8.526512829121202e-14L139.2550357582615,-112.9344009522901L73.8977718635488,-63.154928180713206L53.21197401788966,40.659896755318606L103.90081102161838,133.34617212098146z" fill="#2ca02c" stroke="#FFFFFF" stroke-width="2" id="Manhattan"/><path d="M103.90081102161832,133.34617212098146L53.21197401788966,40.659896755318606L-167.43157806499153,17.54897922458778L-167.43157806499147,290.00000000000006z" fill="#d62728" stroke="#FFFFFF" stroke-width="2" id="Queens"/><path d="M38.992402440411325,-170.8210592880115L26.79168019965166,-135.42421262220373L73.8977718635488,-63.154928180713206L139.25503575826156,-112.93440095229009z" fill="#9467bd" stroke="#FFFFFF" stroke-width="2" id="Staten_Island"/><path d="M-167.4315780649917,-290L-167.43157806499147,290L334.86315612998294,-5.684341886080802e-14z" fill="none" stroke="#FFFFFF" stroke-width="4"/></g><g id="labels"><text text-anchor="middle" dominant-baseline="text-before-edge" transform="translate(-90.20323464835894,-180.71846404157742)"><tspan x="3" y="0.2em" style="font-family: Arial, sans-serif; font-size: 10px; fill: black; font-weight: bold;">Bronx</tspan><tspan x="3" y="1.3em" style="font-family: Arial, sans-serif; font-size: 10px; fill: black; font-weight: normal;">54</tspan></text><text text-anchor="middle" dominant-baseline="text-before-edge" transform="translate(-43.45553459654543,-46.23970451821908)"><tspan x="3" y="0.2em" style="font-family: Arial, sans-serif; font-size: 10px; fill: black; font-weight: bold;">Brooklyn</tspan><tspan x="3" y="1.3em" style="font-family: Arial, sans-serif; font-size: 10px; fill: black; font-weight: normal;">63</tspan></text><text text-anchor="middle" dominant-baseline="text-before-edge" transform="translate(166.09863825689646,-4.484634757887548)"><tspan x="3" y="0.2em" style="font-family: Arial, sans-serif; font-size: 10px; fill: black; font-weight: bold;">Manhattan</tspan><tspan x="3" y="1.3em" style="font-family: Arial, sans-serif; font-size: 10px; fill: black; font-weight: normal;">77</tspan></text><text text-anchor="middle" dominant-baseline="text-before-edge" transform="translate(-60.82804967195764,119.61841988360948)"><tspan x="3" y="0.2em" style="font-family: Arial, sans-serif; font-size: 10px; fill: black; font-weight: bold;">Queens</tspan><tspan x="3" y="1.3em" style="font-family: Arial, sans-serif; font-size: 10px; fill: black; font-weight: normal;">96</tspan></text><text text-anchor="middle" dominant-baseline="text-before-edge" transform="translate(75.32610006101487,-123.66317167177284)"><tspan x="3" y="0.2em" style="font-family: Arial, sans-serif; font-size: 10px; fill: black; font-weight: bold;">Staten_Island</tspan><tspan x="3" y="1.3em" style="font-family: Arial, sans-serif; font-size: 10px; fill: black; font-weight: normal;">11</tspan></text></g></g></svg>